# xmcd
#
# Track frame offsets:
# 150
# 57835
# 84637
# 116950
# 151975
# 180732
# 216919
# 248239
# 274387
#
# Disc length: 3983 seconds
#
# Revision: 1
# Processed by: cddbd v1.5.2PL0 Copyright (c) Steve Scherf et al.
# Submitted via: CedeCatalogueitor 2.6.0.6 http://personales.ya.com/cdcatalogueitor
#
DISCID=840f8d09
DTITLE=Eric Clapton - Blues [CD 2)
DYEAR=1999
DGENRE=
TTITLE0=Stormy Monday
TTITLE1=Worried Life Blues
TTITLE2=Early In The Morning
TTITLE3=Have You Ever Loved A Woman
TTITLE4=Wonderful Tonight
TTITLE5=Double Trouble
TTITLE6=Driftin´ Blues
TTITLE7=Crossroads
TTITLE8=Further Up The Road
EXTD=
EXTT0=
EXTT1=
EXTT2=
EXTT3=
EXTT4=
EXTT5=
EXTT6=
EXTT7=
EXTT8=
PLAYORDER=
